
	<svg width="31" height="16" viewBox="0 0 31 16" fill="none" xmlns="http://www.w3.org/2000/svg">
		<path
			d="M15.5 15.6667C15.0035 15.6677 14.5223 15.4913 14.14 15.1683L1.38998 4.335C0.956015 3.96723 0.683113 3.43876 0.631306 2.86583C0.579499 2.29291 0.753031 1.72247 1.11373 1.28C1.47442 0.837527 1.99273 0.559275 2.55464 0.506452C3.11654 0.453629 3.67601 0.630563 4.10998 0.998329L15.5 10.705L26.89 1.345C27.1073 1.16502 27.3574 1.03062 27.6259 0.949517C27.8944 0.868415 28.1759 0.842212 28.4544 0.872414C28.7328 0.902615 29.0026 0.988625 29.2484 1.1255C29.4941 1.26238 29.7109 1.44742 29.8862 1.67C30.0808 1.89278 30.2282 2.15413 30.3192 2.43769C30.4101 2.72125 30.4426 3.0209 30.4147 3.31788C30.3868 3.61485 30.299 3.90274 30.1569 4.16351C30.0147 4.42428 29.8213 4.65232 29.5887 4.83333L16.8387 15.2983C16.4454 15.5703 15.9741 15.7 15.5 15.6667Z"
			fill="#E5E5E5"
		/>
	</svg>
